<svg xmlns="http://www.w3.org/2000/svg" viewBox="0 0 512 512">
  <defs>
    <linearGradient id="grad" x1="0%" y1="0%" x2="100%" y2="100%">
      <stop offset="0%" style="stop-color:#ffffff;stop-opacity:1" />
      <stop offset="100%" style="stop-color:#f0f0f0;stop-opacity:1" />
    </linearGradient>
    <filter id="shadow" x="-20%" y="-20%" width="140%" height="140%">
      <feDropShadow dx="0" dy="4" stdDeviation="8" flood-opacity="0.2"/>
    </filter>
  </defs>
  
  <rect x="32" y="32" width="448" height="448" rx="96" fill="#ffffff" />
  
  <rect x="100" y="100" width="312" height="340" rx="20" fill="url(#grad)" filter="url(#shadow)" />
  
  <path d="M100 120a20 20 0 0 1 20-20h272a20 20 0 0 1 20 20v60H100z" fill="#4285F4"/>
  
  <g fill="#34A853" opacity="0.9">
    <rect x="130" y="210" width="116" height="40" rx="4" />
    <rect x="266" y="210" width="116" height="40" rx="4" />
    
    <rect x="130" y="270" width="116" height="40" rx="4" />
    <rect x="266" y="270" width="116" height="40" rx="4" />

    <rect x="130" y="330" width="116" height="40" rx="4" />
    <rect x="266" y="330" width="116" height="40" rx="4" />
  </g>
  
  <circle cx="390" cy="390" r="50" fill="#FBBC05" />
  <path d="M370 390l15 15l30-30" stroke="#ffffff" stroke-width="8" fill="none" stroke-linecap="round" />
</svg>